HIERARCHY
ROOT Hips
{
	OFFSET 0.000000 0.000000 0.000000 
	CHANNELS 6 Xposition Yposition Zposition Zrotation Yrotation Xrotation
	JOINT LeftUpLeg
	{
		OFFSET 1.363060 -1.794630 0.839290 
		CHANNELS 3 Zrotation Yrotation Xrotation
		JOINT LeftLeg
		{
			OFFSET 2.448110 -6.726130 0.000000 
			CHANNELS 3 Zrotation Yrotation Xrotation
			JOINT LeftFoot
			{
				OFFSET 2.562200 -7.039590 0.000000 
				CHANNELS 3 Zrotation Yrotation Xrotation
				JOINT LeftToeBase
				{
					OFFSET 0.157640 -0.433110 2.322550 
					CHANNELS 3 Zrotation Yrotation Xrotation
					End Site
					{
						OFFSET 0.000000 0.000000 0.000000 
					}
				}
			}
		}
	}
	JOINT RightUpLeg
	{
		OFFSET -1.305520 -1.794630 0.839290 
		CHANNELS 3 Zrotation Yrotation Xrotation
		JOINT RightLeg
		{
			OFFSET -2.542530 -6.985550 0.000000 
			CHANNELS 3 Zrotation Yrotation Xrotation
			JOINT RightFoot
			{
				OFFSET -2.568260 -7.056230 0.000000 
				CHANNELS 3 Zrotation Yrotation Xrotation
				JOINT RightToeBase
				{
					OFFSET -0.164730 -0.452590 2.363150 
					CHANNELS 3 Zrotation Yrotation Xrotation
					End Site
					{
						OFFSET 0.000000 0.000000 0.000000 
					}
				}
			}
		}
	}
	JOINT Spine
	{
		OFFSET 0.028270 2.035590 -0.193380 
		CHANNELS 3 Zrotation Yrotation Xrotation
		JOINT Spine1
		{
			OFFSET 0.056720 2.048850 -0.042750 
			CHANNELS 3 Zrotation Yrotation Xrotation
			JOINT Neck1
			{
				OFFSET -0.054170 1.746240 0.172020 
				CHANNELS 3 Zrotation Yrotation Xrotation
				JOINT Head
				{
					OFFSET 0.104070 1.761360 -0.123970 
					CHANNELS 3 Zrotation Yrotation Xrotation
					End Site
					{
						OFFSET 0.000000 0.000000 0.000000 
					}
				}
			}
			JOINT LeftArm
			{
				OFFSET 3.362410 1.200890 -0.311210 
				CHANNELS 3 Zrotation Yrotation Xrotation
				JOINT LeftForeArm
				{
					OFFSET 4.983000 -0.000000 -0.000000 
					CHANNELS 3 Zrotation Yrotation Xrotation
					JOINT LeftHand
					{
						OFFSET 3.483560 -0.000000 -0.000000 
						CHANNELS 3 Zrotation Yrotation Xrotation
						JOINT LeftHandIndex1
						{
							OFFSET 0.715260 -0.000000 -0.000000 
							CHANNELS 3 Zrotation Yrotation Xrotation
							End Site
							{
								OFFSET 0.000000 0.000000 0.000000 
							}
						}
					}
				}
			}
			JOINT RightArm
			{
				OFFSET -3.136600 1.374050 -0.404650 
				CHANNELS 3 Zrotation Yrotation Xrotation
				JOINT RightForeArm
				{
					OFFSET -5.241900 -0.000000 -0.000000 
					CHANNELS 3 Zrotation Yrotation Xrotation
					JOINT RightHand
					{
						OFFSET -3.444170 -0.000000 -0.000000 
						CHANNELS 3 Zrotation Yrotation Xrotation
						JOINT RightHandIndex1
						{
							OFFSET -0.622530 -0.000000 -0.000000 
							CHANNELS 3 Zrotation Yrotation Xrotation
							End Site
							{
								OFFSET 0.000000 0.000000 0.000000 
							}
						}
					}
				}
			}
		}
	}
}
MOTION
Frames: 10
Frame Time: 0.041667
-0.408371 17.677740 -0.948188 -0.481909 -0.998295 8.583501 -19.652210 -9.453298 -15.389746 0.616594 6.452632 20.747999 -0.973055 7.494827 -8.684588 0.809700 -5.742300 -16.038500 28.717292 8.771067 -13.925843 -1.803715 -6.283641 21.442753 1.455283 -14.015232 -13.461006 -0.324800 3.663100 -10.130700 -0.275549 0.610521 -0.407615 1.488276 0.226319 -0.019994 8.093807 4.645542 12.998328 3.354300 2.539600 4.351400 62.599180 -51.351712 -76.488761 49.456057 -54.088595 -25.406020 -2.191047 0.847353 -20.586236 -7.125000 0.000000 0.000000 -27.921701 29.531346 -60.757112 -25.495311 36.972988 -6.519783 2.139062 -0.560113 10.638430 7.125000 0.000000 0.000000 
-0.423084 17.682320 -0.944777 -0.491390 -0.747576 8.689220 -19.569536 -9.594168 -15.345029 0.574241 6.357106 20.463108 -0.984148 7.502619 -8.519428 0.789900 -5.673400 -15.839500 28.765498 8.771248 -13.954547 -1.791505 -6.263318 21.375614 1.466154 -14.111957 -13.572600 -0.289200 3.458100 -9.557000 -0.339287 0.784559 -0.413112 1.306473 0.318288 -0.037797 8.086434 4.326711 13.299231 3.348400 2.394800 4.559600 61.593144 -50.551507 -75.926909 49.435071 -54.033834 -25.351250 -2.185698 0.831945 -20.763380 -7.125000 0.000000 0.000000 -29.120162 29.380238 -61.473916 -25.577561 37.146832 -6.586328 2.121797 -0.572511 10.742117 7.125000 0.000000 0.000000 
-0.436628 17.686120 -0.944680 -0.394372 -0.543992 8.792729 -19.616002 -9.691224 -15.319509 0.535514 6.267175 20.200698 -0.993926 7.497788 -8.320065 0.774400 -5.618900 -15.682600 28.687059 8.765117 -14.040695 -1.784773 -6.255110 21.333026 1.482648 -14.217799 -13.601929 -0.276100 3.379800 -9.338100 -0.417795 0.992268 -0.414476 1.152121 0.427961 -0.089947 8.090327 4.017475 13.371507 3.349400 2.245300 4.617700 60.780391 -49.818876 -75.571483 49.160924 -53.884186 -25.101980 -2.188863 0.818912 -20.928954 -7.125000 0.000000 0.000000 -30.295563 29.267908 -62.094536 -25.611905 37.272145 -6.628424 2.100720 -0.582139 10.744333 7.125000 0.000000 0.000000 
-0.448613 17.690115 -0.944290 -0.309104 -0.347627 8.938925 -19.659295 -9.845336 -15.320881 0.500702 6.189350 19.969044 -1.010009 7.545594 -8.191217 0.773800 -5.616800 -15.676400 28.597304 8.790171 -14.183625 -1.778809 -6.254509 21.303180 1.480880 -14.245591 -13.688057 -0.250800 3.222400 -8.898500 -0.529492 1.279637 -0.413388 0.893272 0.583830 -0.142988 8.336188 3.650705 13.168780 3.473600 2.064000 4.506000 60.364528 -49.254429 -75.679704 48.674443 -53.660027 -24.694297 -2.204785 0.804704 -20.876046 -7.125000 0.000000 0.000000 -31.229049 28.949634 -62.309158 -25.705144 37.451449 -6.698889 2.076090 -0.584299 10.536778 7.125000 0.000000 0.000000 
-0.459819 17.694792 -0.942731 -0.302255 -0.132724 9.044936 -19.614073 -9.992453 -15.300814 0.470814 6.119107 19.759146 -1.031119 7.602932 -7.996577 0.778000 -5.631700 -15.719400 28.601772 8.769815 -14.295995 -1.777472 -6.263929 21.313342 1.468933 -14.232845 -13.824843 -0.220800 3.024800 -8.347800 -0.642913 1.516590 -0.416486 0.572629 0.715834 -0.187327 8.710571 3.313360 13.146371 3.674800 1.903100 4.499700 59.789047 -48.680007 -75.527959 48.380533 -53.504173 -24.435019 -2.217838 0.803988 -20.786464 -7.125000 0.000000 0.000000 -32.239902 28.847387 -62.796744 -25.699265 37.528073 -6.722897 2.053228 -0.588690 10.579585 7.125000 0.000000 0.000000 
-0.471024 17.698008 -0.942731 -0.255998 0.030391 9.109960 -19.621319 -10.075302 -15.278347 0.446715 6.060054 19.587098 -1.051786 7.665025 -7.826171 0.782900 -5.648800 -15.768700 28.572625 8.714196 -14.414326 -1.782495 -6.284103 21.356629 1.471648 -14.270477 -13.870951 -0.218600 3.010100 -8.307000 -0.759187 1.740621 -0.439600 0.244036 0.838266 -0.287052 8.813331 2.984027 13.353353 3.723500 1.751400 4.636800 59.016021 -48.079055 -74.982387 48.218397 -53.396841 -24.277872 -2.215559 0.810737 -20.644602 -7.125000 0.000000 0.000000 -33.221063 29.020174 -63.679906 -25.713561 37.623806 -6.761811 2.042487 -0.591809 11.026124 7.125000 0.000000 0.000000 
-0.480476 17.699859 -0.944875 -0.175322 0.146213 9.210451 -19.680611 -10.162817 -15.314890 0.426334 6.015972 19.451773 -1.067173 7.723491 -7.736918 0.774900 -5.620700 -15.687800 28.492330 8.725758 -14.585395 -1.792336 -6.320436 21.436166 1.473357 -14.307832 -13.919734 -0.224600 3.050400 -8.419000 -0.885449 1.987217 -0.423291 -0.116957 0.970207 -0.313152 8.739671 2.662338 13.342468 3.661200 1.599700 4.659500 58.324644 -47.413246 -74.528953 48.027327 -53.287811 -24.104896 -2.223257 0.815972 -20.537897 -7.125000 0.000000 0.000000 -34.260453 29.198169 -64.631269 -25.726108 37.725784 -6.802223 2.029795 -0.603855 11.274562 7.125000 0.000000 0.000000 
-0.489733 17.700541 -0.951013 -0.061151 0.254447 9.345542 -19.772611 -10.247324 -15.429969 0.411291 5.991378 19.362427 -1.067300 7.710785 -7.657519 0.748900 -5.527700 -15.419900 28.367736 8.743608 -14.844312 -1.807433 -6.374149 21.554779 1.468421 -14.318962 -13.979814 -0.223500 3.043000 -8.398500 -1.018770 2.208374 -0.358680 -0.458029 1.087528 -0.216904 8.751589 2.367101 13.198512 3.644600 1.463200 4.634800 57.619280 -46.679485 -74.097788 47.883565 -53.202697 -23.971011 -2.239695 0.813658 -20.331076 -7.125000 0.000000 0.000000 -35.454443 29.345825 -65.549774 -25.665688 37.760013 -6.805998 2.013207 -0.624416 11.222218 7.125000 0.000000 0.000000 
-0.498600 17.701321 -0.959783 0.077422 0.359357 9.464028 -19.906828 -10.302211 -15.561876 0.403633 5.981342 19.317503 -1.078641 7.737731 -7.492311 0.774100 -5.617900 -15.679600 28.207469 8.769183 -15.128491 -1.828120 -6.440774 21.708474 1.462577 -14.318374 -14.014120 -0.223800 3.044900 -8.403700 -1.155165 2.433606 -0.360202 -0.796320 1.209670 -0.284276 8.900590 2.067804 13.023366 3.691500 1.316200 4.515000 56.761896 -46.224171 -73.434130 47.823167 -53.130505 -23.891709 -2.238632 0.819657 -19.920543 -7.125000 0.000000 0.000000 -36.532756 29.744253 -66.334791 -25.531489 37.705477 -6.771235 1.993579 -0.642413 11.270516 7.125000 0.000000 0.000000 
-0.509026 17.701808 -0.967286 0.176787 0.428807 9.637162 -19.990630 -10.297569 -15.791511 0.400857 5.989599 19.309107 -1.088196 7.752103 -7.288917 0.810200 -5.744100 -16.043700 28.090432 8.894686 -15.449123 -1.850921 -6.520262 21.892655 1.459701 -14.352749 -14.097498 -0.222700 3.037900 -8.384300 -1.289853 2.684341 -0.320188 -1.135398 1.342582 -0.216020 9.065036 1.719842 12.940251 3.765000 1.152600 4.509700 55.913564 -45.612071 -72.809335 47.813195 -53.090652 -23.854721 -2.225532 0.829018 -19.579543 -7.125000 0.000000 0.000000 -37.655752 30.066373 -67.275311 -25.390099 37.644704 -6.731047 1.971492 -0.659452 11.369824 7.125000 0.000000 0.000000 
